<mxfile host="app.diagrams.net" modified="2023-10-04T12:38:19.228Z" agent="Mozilla/5.0 (Windows NT 10.0; Win64; x64) AppleWebKit/537.36 (KHTML, like Gecko) Chrome/117.0.0.0 Safari/537.36" version="22.0.2" etag="e1vTkl_4cvJ3fByourve" type="github">
  <diagram name="PÃ¡gina-1" id="lWA5ySZ2axE2pmVUrHKg">
    <mxGraphModel>
      <root>
        <mxCell id="0" />
        <mxCell id="1" parent="0" />
      </root>
    </mxGraphModel>
  </diagram>
</mxfile>
